<svg xmlns="http://www.w3.org/2000/svg" viewBox="0 0 282 364" width="282" height="364">
	<style>
		tspan { white-space:pre }
		.shp0 { fill: #000000 } 
	</style>
	<g id="Layer_2">
		<g id="Layer_1-2">
			<path id="Layer" fill-rule="evenodd" class="shp0" d="M147.8 364L134.07 351C192.87 288.79 263 201.84 263 140.93C262.96 108.57 250.11 77.54 227.23 54.66C204.35 31.78 173.32 18.93 140.97 18.93C108.61 18.93 77.58 31.78 54.7 54.66C31.82 77.54 18.97 108.57 18.97 140.93C18.93 196.81 70.16 264.86 94.86 295.65L127.92 262.58C92.92 219.42 75.12 187.45 75.12 167.58C75.12 130.58 104.66 100.51 140.96 100.51C176.65 100.51 206.8 131.23 206.8 167.58C206.8 199.29 158.09 259.18 147.65 269.58L93.37 323.84L86.76 315.73C0 209.17 0 157.81 0 140.93C0 63.22 63.22 0 140.93 0C218.64 0 281.87 63.22 281.87 140.93C281.87 194.82 236.76 269.87 147.8 364ZM140.93 119.37C115.49 119.37 93.99 141.43 93.99 167.54C93.99 174.54 98.66 196.2 140.99 248.74C157.99 228.74 187.86 185.98 187.86 167.54C187.87 141.88 165.94 119.37 140.93 119.37Z" />
		</g>
	</g>
</svg>